Coordinates
version=1
nRows=9
nColumns=24
inDegrees=yes

Units are S.I. units (second, meters, Newtons, ...)
Angles are in degrees.

endheader
time	pelvis_tilt	pelvis_list	pelvis_rotation	pelvis_tx	pelvis_ty	pelvis_tz	hip_flexion_r	hip_adduction_r	hip_rotation_r	knee_angle_r	ankle_angle_r	subtalar_angle_r	mtp_angle_r	hip_flexion_l	hip_adduction_l	hip_rotation_l	knee_angle_l	ankle_angle_l	subtalar_angle_l	mtp_angle_l	lumbar_extension	lumbar_bending	lumbar_rotation
      0.46200000	     -4.04472970	      4.16578412	      1.18827667	     -0.79012421	      0.98235965	      0.29078906	     29.67764797	     -2.42830309	     -5.24881507	    -11.55254853	      3.92191355	     -5.66429622	      0.58660187	    -11.72282966	      7.77653889	      1.55181834	     -5.57726471	      7.87988872	     -4.24715403	      0.21904435	     -0.45122303	     -1.82876712	     -0.19791765
      0.46616667	     -4.10670260	      4.16884886	      1.24413496	     -0.78404392	      0.98163817	      0.29104670	     29.63987150	     -2.38808652	     -5.37058330	    -11.49990327	      3.75812592	     -5.62981932	      0.71549525	    -11.69842866	      7.74189414	      1.57527595	     -6.21890627	      7.95275648	     -4.17100700	      0.24110761	     -0.31692038	     -1.82026599	     -0.22787368
      0.47033333	     -4.17987951	      4.17228502	      1.28899050	     -0.77794037	      0.98092424	      0.29135770	     29.60774525	     -2.33733433	     -5.40925869	    -11.50806446	      3.60294670	     -5.59863485	      1.05784652	    -11.59366494	      7.69803605	      1.43287529	     -6.98909165	      8.03554238	     -3.81536841	      0.33462957	     -0.16327725	     -1.83689491	     -0.36637214
      0.47450000	     -4.19235454	      4.16103962	      1.32482449	     -0.77180101	      0.98032062	      0.29160488	     29.53073669	     -2.28438590	     -5.50324370	    -11.63198834	      3.37482299	     -5.64141583	      1.19418369	    -11.56614950	      7.65698084	      1.44404297	     -7.73540444	      8.05809697	     -3.83304331	      0.38840654	     -0.08541772	     -1.79468135	     -0.37333692
      0.47866667	     -4.24957833	      4.15611449	      1.35833929	     -0.76567180	      0.97968672	      0.29191742	     29.48853818	     -2.22370416	     -5.46823940	    -11.77942356	      3.03291832	     -5.95974602	      6.18854604	    -11.42128708	      7.61046284	      1.34944597	     -8.59982114	      8.01179494	     -3.64472895	      2.75494659	      0.03718933	     -1.78671879	     -0.38796055
      0.48283333	     -4.30816455	      4.15110362	      1.39706211	     -0.75951825	      0.97906148	      0.29216888	     29.47481762	     -2.18332860	     -5.50648540	    -12.04985749	      2.74308806	     -5.92391202	      6.22433490	    -11.24294219	      7.57193830	      1.29397619	     -9.53535488	      7.99675513	     -3.53191077	      2.79438494	      0.17078581	     -1.76141388	     -0.50613046
      0.48700000	     -4.34336897	      4.13751991	      1.43689085	     -0.75335026	      0.97852498	      0.29240772	     29.43193866	     -2.13691406	     -5.51980847	    -12.36493622	      2.37676977	     -6.00645597	      6.24451083	    -11.06868153	      7.52905558	      1.30672510	    -10.50026041	      7.92073335	     -3.52390272	      2.83884345	      0.27089722	     -1.72173456	     -0.51626930
      0.49116667	     -4.38822957	      4.10982340	      1.46192018	     -0.74717723	      0.97800218	      0.29272863	     29.38837077	     -2.05520440	     -5.41540278	    -12.70553869	      2.08082814	     -6.26770354	      6.32675186	    -10.80464226	      7.45680785	      1.15343987	    -11.61061432	      7.85227910	     -3.29991668	      3.02280659	      0.40000491	     -1.67812633	     -0.58621278
      0.49533333	     -4.45728822	      4.09407996	      1.48725164	     -0.74101961	      0.97746249	      0.29301440	     29.39178670	     -1.99473843	     -5.31585300	    -13.12060810	      1.72275208	     -6.51384631	      6.42583868	    -10.48548645	      7.40690183	      1.07730357	    -12.77014873	      7.71224172	     -3.21731815	      3.28847927	      0.54825017	     -1.64002846	     -0.59513817
